<?xml version="1.0" encoding="utf-8"?>
<!-- Generator: Adobe Illustrator 19.1.0, SVG Export Plug-In . SVG Version: 6.00 Build 0)  -->
<svg version="1.1" id="Capa_1" xmlns="http://www.w3.org/2000/svg" xmlns:xlink="http://www.w3.org/1999/xlink" x="0px" y="0px"
	 viewBox="0 0 250 250" style="enable-background:new 0 0 250 250;" xml:space="preserve">
<style type="text/css">
	.st0{fill:#32E3B4;}
</style>
<path class="st0" d="M223.9,166.4h-23v-19.5c18.3-23.3,27.6-47,27.6-70.2c0-29.2-23.7-52.9-52.9-52.9c-23.8,0-44,15.8-50.6,37.5
	c-6.6-21.7-26.8-37.5-50.6-37.5c-26.3,0-48.1,19.2-52.2,44.3l0,0c-0.7,0.7-0.8,1.9-0.3,2.7c-0.2,1.9-0.3,3.8-0.3,5.8s0.1,4,0.2,6
	c-0.3,0.7-0.2,1.5,0.2,2.1c2.6,28.6,18.5,53.8,37.1,74c0,0,0,0,0,0.1l0,0c28.2,30.7,62.5,49.6,64.9,51c0.3,0.2,0.7,0.3,1.1,0.3
	s0.8-0.1,1.1-0.3c0.3-0.2,6.4-3.5,15.6-9.7c0.4,0.5,1,0.8,1.7,0.8h23v23c0,1.3,1,2.3,2.3,2.3h29.9c1.3,0,2.3-1,2.3-2.3v-23h23
	c1.3,0,2.3-1,2.3-2.3v-29.9C226.2,167.4,225.2,166.4,223.9,166.4z M209.1,171L171,209.1v-10.5c0-0.4-0.1-0.7-0.3-1.1l26.8-26.8
	c0.3,0.2,0.7,0.3,1.1,0.3H209.1z M153.6,196.3l42.7-42.7v11.9l-30.9,30.9L153.6,196.3L153.6,196.3z M145.7,196.3L145.7,196.3v-8.2
	l17.1-17.1h5.9c1.3,0,2.3-1,2.3-2.3v-5.9l17.1-17.1h8.2v0.5v0.9L147,196.3H145.7z M145.7,181.5V171h10.5L145.7,181.5z M171,156.2
	v-10.5h10.5L171,156.2z M125,205.2c-2.1-1.2-6.9-4-13.4-8.4l5.8-5.8c0.9-0.9,0.9-2.4,0-3.3c-0.9-0.9-2.4-0.9-3.3,0l-6.4,6.4
	c-3-2.1-6.2-4.4-9.6-6.9l7.7-7.7c0.9-0.9,0.9-2.4,0-3.3s-2.4-0.9-3.3,0l-8.2,8.2c-2.6-2-5.2-4.1-7.9-6.3l7.8-7.8
	c0.9-0.9,0.9-2.4,0-3.3c-0.9-0.9-2.4-0.9-3.3,0l-8.1,8.1c-2.9-2.5-5.8-5.1-8.7-7.8l8.5-8.5c0.9-0.9,0.9-2.4,0-3.3
	c-0.9-0.9-2.4-0.9-3.3,0l-8.6,8.6c-2.4-2.3-4.7-4.7-7-7.2l9.7-9.7c0.9-0.9,0.9-2.4,0-3.3s-2.4-0.9-3.3,0l-9.6,9.6
	c-2.2-2.5-4.4-5-6.6-7.6l10.2-10.2c0.9-0.9,0.9-2.4,0-3.3c-0.9-0.9-2.4-0.9-3.3,0l-9.8,9.8c-2.1-2.7-4.1-5.5-6-8.4
	c0.2-0.1,0.5-0.2,0.6-0.4L55.9,123c0.9-0.9,0.9-2.4,0-3.3s-2.4-0.9-3.3,0L43,130.1c-1.6-2.5-3-5.1-4.4-7.7c0.2-0.1,0.5-0.2,0.7-0.4
	l11.5-11.5c0.9-0.9,0.9-2.4,0-3.3s-2.4-0.9-3.3,0l-11.1,11.1c-1.3-2.7-2.5-5.5-3.6-8.3l15.6-15.6c0.9-0.9,0.9-2.4,0-3.3
	s-2.4-0.9-3.3,0L31,105.3c-1-3-1.9-6-2.6-9.1c0.6,0,1.1-0.2,1.6-0.6l18.4-17.2c0.9-0.9,1-2.3,0.1-3.3c-0.9-0.9-2.3-1-3.3-0.1
	L27.5,91.6c-0.4-2.5-0.8-4.9-1-7.5l24.3-24.3c0.9-0.9,0.9-2.4,0-3.3c-0.9-0.9-2.4-0.9-3.3,0L26.1,78c0-0.4,0-0.9,0-1.3
	c0-2.2,0.2-4.3,0.5-6.4l31-31c0.9-0.9,0.9-2.4,0-3.3c-0.9-0.9-2.4-0.9-3.3,0L28.4,61.9c6.3-19.4,24.5-33.5,46-33.5
	c26.6,0,48.3,21.7,48.3,48.3c0,1.3,1,2.3,2.3,2.3s2.3-1,2.3-2.3c0-26.6,21.7-48.3,48.3-48.3s48.3,21.7,48.3,48.3
	c0,21.3-8.2,43-24.4,64.6c-0.3-0.1-0.6-0.2-0.9-0.2h-29.9c-1.3,0-2.3,1-2.3,2.3v23h-23c-1.3,0-2.3,1-2.3,2.3V195
	C133.3,200.3,127.4,203.8,125,205.2z M183.5,221.6l12.8-12.8v12.8H183.5z M198.6,196.3c-1.3,0-2.3,1-2.3,2.3v3.6l-19.4,19.4H171
	v-5.9l44.7-44.7h5.9v5.9l-19.4,19.4H198.6z M208.8,196.3l12.8-12.8v12.8H208.8z"/>
<path class="st0" d="M223.9,166.4h-23v-19.5c18.3-23.3,27.6-47,27.6-70.2c0-29.2-23.7-52.9-52.9-52.9c-23.8,0-44,15.8-50.6,37.5
	c-6.6-21.7-26.8-37.5-50.6-37.5c-26.3,0-48.1,19.2-52.2,44.3l0,0c-0.7,0.7-0.8,1.9-0.3,2.7c-0.2,1.9-0.3,3.8-0.3,5.8s0.1,4,0.2,6
	c-0.3,0.7-0.2,1.5,0.2,2.1c2.6,28.6,18.5,53.8,37.1,74c0,0,0,0,0,0.1l0,0c28.2,30.7,62.5,49.6,64.9,51c0.3,0.2,0.7,0.3,1.1,0.3
	s0.8-0.1,1.1-0.3c0.3-0.2,6.4-3.5,15.6-9.7c0.4,0.5,1,0.8,1.7,0.8h23v23c0,1.3,1,2.3,2.3,2.3h29.9c1.3,0,2.3-1,2.3-2.3v-23h23
	c1.3,0,2.3-1,2.3-2.3v-29.9C226.2,167.4,225.2,166.4,223.9,166.4z M209.1,171L171,209.1v-10.5c0-0.4-0.1-0.7-0.3-1.1l26.8-26.8
	c0.3,0.2,0.7,0.3,1.1,0.3H209.1z M153.6,196.3l42.7-42.7v11.9l-30.9,30.9L153.6,196.3L153.6,196.3z M145.7,196.3L145.7,196.3v-8.2
	l17.1-17.1h5.9c1.3,0,2.3-1,2.3-2.3v-5.9l17.1-17.1h8.2v0.5v0.9L147,196.3H145.7z M145.7,181.5V171h10.5L145.7,181.5z M171,156.2
	v-10.5h10.5L171,156.2z M125,205.2c-2.1-1.2-6.9-4-13.4-8.4l5.8-5.8c0.9-0.9,0.9-2.4,0-3.3c-0.9-0.9-2.4-0.9-3.3,0l-6.4,6.4
	c-3-2.1-6.2-4.4-9.6-6.9l7.7-7.7c0.9-0.9,0.9-2.4,0-3.3s-2.4-0.9-3.3,0l-8.2,8.2c-2.6-2-5.2-4.1-7.9-6.3l7.8-7.8
	c0.9-0.9,0.9-2.4,0-3.3c-0.9-0.9-2.4-0.9-3.3,0l-8.1,8.1c-2.9-2.5-5.8-5.1-8.7-7.8l8.5-8.5c0.9-0.9,0.9-2.4,0-3.3
	c-0.9-0.9-2.4-0.9-3.3,0l-8.6,8.6c-2.4-2.3-4.7-4.7-7-7.2l9.7-9.7c0.9-0.9,0.9-2.4,0-3.3s-2.4-0.9-3.3,0l-9.6,9.6
	c-2.2-2.5-4.4-5-6.6-7.6l10.2-10.2c0.9-0.9,0.9-2.4,0-3.3c-0.9-0.9-2.4-0.9-3.3,0l-9.8,9.8c-2.1-2.7-4.1-5.5-6-8.4
	c0.2-0.1,0.5-0.2,0.6-0.4L55.9,123c0.9-0.9,0.9-2.4,0-3.3s-2.4-0.9-3.3,0L43,130.1c-1.6-2.5-3-5.1-4.4-7.7c0.2-0.1,0.5-0.2,0.7-0.4
	l11.5-11.5c0.9-0.9,0.9-2.4,0-3.3s-2.4-0.9-3.3,0l-11.1,11.1c-1.3-2.7-2.5-5.5-3.6-8.3l15.6-15.6c0.9-0.9,0.9-2.4,0-3.3
	s-2.4-0.9-3.3,0L31,105.3c-1-3-1.9-6-2.6-9.1c0.6,0,1.1-0.2,1.6-0.6l18.4-17.2c0.9-0.9,1-2.3,0.1-3.3c-0.9-0.9-2.3-1-3.3-0.1
	L27.5,91.6c-0.4-2.5-0.8-4.9-1-7.5l24.3-24.3c0.9-0.9,0.9-2.4,0-3.3c-0.9-0.9-2.4-0.9-3.3,0L26.1,78c0-0.4,0-0.9,0-1.3
	c0-2.2,0.2-4.3,0.5-6.4l31-31c0.9-0.9,0.9-2.4,0-3.3c-0.9-0.9-2.4-0.9-3.3,0L28.4,61.9c6.3-19.4,24.5-33.5,46-33.5
	c26.6,0,48.3,21.7,48.3,48.3c0,1.3,1,2.3,2.3,2.3s2.3-1,2.3-2.3c0-26.6,21.7-48.3,48.3-48.3s48.3,21.7,48.3,48.3
	c0,21.3-8.2,43-24.4,64.6c-0.3-0.1-0.6-0.2-0.9-0.2h-29.9c-1.3,0-2.3,1-2.3,2.3v23h-23c-1.3,0-2.3,1-2.3,2.3V195
	C133.3,200.3,127.4,203.8,125,205.2z M183.5,221.6l12.8-12.8v12.8H183.5z M198.6,196.3c-1.3,0-2.3,1-2.3,2.3v3.6l-19.4,19.4H171
	v-5.9l44.7-44.7h5.9v5.9l-19.4,19.4H198.6z M208.8,196.3l12.8-12.8v12.8H208.8z"/>
</svg>
